<svg width="134" height="110" viewBox="0 0 134 110" fill="none" xmlns="http://www.w3.org/2000/svg">
<rect width="33" height="12" transform="translate(16 16)" fill="white"/>
<path d="M26.6562 26.5498C26.6602 26.5498 26.6642 26.5439 26.6642 26.5439C26.696 26.5203 26.7279 26.4909 26.7558 26.4556C26.7518 26.4556 26.7478 26.4556 26.7438 26.4498C26.7159 26.4792 26.6841 26.5145 26.6562 26.5498Z" fill="#000091"/>
<path d="M31.0694 25.0629L30.9997 25.1229C31.0396 25.1129 31.0694 25.1029 31.0694 25.0629Z" fill="#000091"/>
<path fill-rule="evenodd" clip-rule="evenodd" d="M29.6426 26.5817C29.7704 26.4532 29.8983 26.3168 30.0261 26.1765H30.0222C30.2624 25.9038 30.4948 25.6428 30.7737 25.4051C30.8589 25.3272 30.9402 25.261 31.0177 25.2064C31.0291 25.195 31.0349 25.1779 31.0406 25.1612C31.0465 25.1438 31.0523 25.1268 31.0642 25.1168C31.009 25.1379 30.965 25.1712 30.9207 25.2047C30.8749 25.2394 30.8289 25.2742 30.7698 25.296C30.7466 25.296 30.7233 25.2727 30.7466 25.2493C30.8279 25.1908 30.9092 25.1285 30.9867 25.0662H30.9712C30.948 25.0662 30.948 25.0428 30.948 25.0194C30.6596 24.9736 30.4381 25.1708 30.2399 25.3473L30.2275 25.3584C30.1966 25.3739 30.1675 25.3585 30.1446 25.3464C30.133 25.3403 30.123 25.335 30.1152 25.335C29.9398 25.3938 29.7885 25.5022 29.6362 25.6114C29.4959 25.7119 29.3548 25.813 29.1933 25.8765V25.8298C29.1384 25.8487 29.0842 25.8734 29.0298 25.8981C28.9498 25.9345 28.8696 25.971 28.7865 25.9895C28.6349 26.0247 28.4943 26.0202 28.358 26.0158C28.3133 26.0143 28.2689 26.0129 28.2249 26.0129C27.9768 26.0375 27.7319 26.0906 27.4872 26.1437L27.4076 26.161C27.4037 26.1629 27.3998 26.1639 27.3959 26.1649C27.3921 26.1658 27.3882 26.1668 27.3843 26.1688C27.2371 26.2077 27.1016 26.2623 26.966 26.3402L26.9505 26.348C26.9452 26.3551 26.9398 26.3614 26.9349 26.3673C26.929 26.3743 26.9237 26.3806 26.9195 26.3869C26.873 26.4415 26.8304 26.4882 26.7646 26.5233C26.6673 26.5722 26.5832 26.6476 26.5005 26.7219C26.4647 26.754 26.429 26.7861 26.3927 26.8155C26.385 26.8233 26.3695 26.8272 26.3578 26.8272C26.2378 26.9441 26.1177 27.061 25.9937 27.1739C25.986 27.1817 25.9511 27.1856 25.924 27.1817C25.924 27.1817 25.9279 27.1817 25.9279 27.1778L25.9395 27.1545L25.9976 27.061C26.0092 27.0434 26.0199 27.0259 26.0305 27.0084C26.0412 26.9908 26.0518 26.9733 26.0635 26.9558C26.0944 26.909 26.1255 26.8622 26.1603 26.8194C26.168 26.8077 26.168 26.796 26.1603 26.7882C26.1525 26.7804 26.1409 26.7765 26.1293 26.7765C26.2416 26.6675 26.3733 26.5739 26.5089 26.4921V26.4882C26.4934 26.4921 26.4702 26.4804 26.4818 26.4649C26.4932 26.4506 26.5024 26.4342 26.5112 26.4188L26.5205 26.4025C26.5225 26.3986 26.5234 26.3957 26.5244 26.3928C26.5254 26.3899 26.5263 26.3869 26.5283 26.383C26.5263 26.3791 26.5234 26.3762 26.5205 26.3733C26.5176 26.3704 26.5147 26.3675 26.5128 26.3636L26.4893 26.3791C26.4612 26.3974 26.4324 26.4163 26.4082 26.4376C26.3911 26.4523 26.3751 26.4725 26.3588 26.4932C26.3232 26.5382 26.2857 26.5856 26.23 26.5856C26.2261 26.5856 26.2068 26.5856 26.1952 26.5817C26.1835 26.5817 26.1758 26.5778 26.1719 26.5739C26.1719 26.572 26.1719 26.571 26.1724 26.5705C26.1729 26.57 26.1738 26.57 26.1758 26.57C26.1758 26.57 26.1797 26.5662 26.1797 26.5623C26.1797 26.5623 26.1797 26.5584 26.1835 26.5584C26.1855 26.5545 26.1874 26.5515 26.1893 26.5486C26.1913 26.5457 26.1932 26.5428 26.1952 26.5389C26.1971 26.535 26.199 26.5321 26.201 26.5291C26.2029 26.5262 26.2048 26.5233 26.2068 26.5194C26.2087 26.5175 26.2097 26.5145 26.2106 26.5116C26.2116 26.5087 26.2126 26.5058 26.2145 26.5038L26.2189 26.4958C26.2227 26.4889 26.2273 26.4808 26.23 26.4726C26.2319 26.4688 26.2339 26.4658 26.2358 26.4629C26.2378 26.46 26.2397 26.4571 26.2416 26.4532C26.2474 26.4454 26.2523 26.4366 26.2571 26.4278C26.262 26.4191 26.2668 26.4103 26.2726 26.4025C26.2765 26.3947 26.2804 26.3869 26.2881 26.3791C26.292 26.3713 26.2959 26.3645 26.2997 26.3577C26.3036 26.3509 26.3075 26.3441 26.3114 26.3363C26.323 26.3168 26.3114 26.3012 26.2959 26.2973C26.3385 26.2428 26.3888 26.196 26.4508 26.161H26.4431C26.4965 26.1341 26.5515 26.1026 26.6062 26.0713C26.6384 26.0528 26.671 26.0341 26.7026 26.0168C26.7142 26.0051 26.7258 25.9934 26.7413 25.9856C26.6135 26.0285 26.4973 26.0869 26.385 26.1649C26.385 26.1649 26.354 26.1765 26.3462 26.1843C26.3462 26.1843 26.323 26.1921 26.292 26.1649C26.2881 26.161 26.2881 26.1571 26.2881 26.1493C26.3016 26.1222 26.3293 26.1043 26.3594 26.0849C26.3812 26.0708 26.4041 26.056 26.4237 26.0363C26.4469 26.0363 26.4663 26.0363 26.4663 26.0597C26.9124 25.7099 27.4625 25.6289 28.0144 25.5477C28.3539 25.4978 28.6941 25.4478 29.0112 25.335C29.0441 25.3116 29.078 25.2892 29.1119 25.2668C29.1458 25.2444 29.1797 25.222 29.2126 25.1986C29.2691 25.1751 29.3198 25.1348 29.3734 25.0922C29.4263 25.0501 29.4822 25.0056 29.5496 24.9727C29.7278 24.8363 29.8634 24.6805 29.9331 24.4506C29.9331 24.4272 29.9099 24.4038 29.9099 24.4038C29.6155 24.7194 29.2785 24.9688 28.9182 25.1519C28.5747 25.3331 28.2067 25.36 27.8423 25.3866C27.7054 25.3966 27.569 25.4065 27.4347 25.4246C27.4579 25.3778 27.5044 25.3779 27.547 25.3779C27.547 25.3225 27.5735 25.2987 27.6075 25.2682C27.6166 25.26 27.6263 25.2514 27.6361 25.2415H27.702C27.7136 25.2415 27.7194 25.2298 27.7252 25.2181C27.731 25.2064 27.7368 25.1947 27.7484 25.1947C27.7949 25.1947 27.8608 25.1714 27.8375 25.1714C27.802 25.1257 27.7504 25.1438 27.6934 25.1637C27.6386 25.1829 27.5789 25.2038 27.5238 25.1714C27.5443 25.1489 27.5504 25.1219 27.556 25.0974C27.5621 25.0708 27.5675 25.0471 27.5896 25.035H27.6787C27.6787 24.9882 27.7252 24.9454 27.7252 24.9454C27.9272 24.8239 28.1223 24.7179 28.3137 24.6138C28.4416 24.5443 28.568 24.4756 28.6936 24.4038C28.6682 24.4038 28.6456 24.4143 28.6238 24.4244C28.589 24.4406 28.5558 24.4559 28.5154 24.4272C28.5386 24.4272 28.5386 24.4107 28.5386 24.3941C28.5386 24.3775 28.5386 24.361 28.5619 24.361C28.7072 24.3222 28.8365 24.2592 28.9686 24.195C29.0619 24.1496 29.1565 24.1036 29.2591 24.0649C29.2287 24.0649 29.2005 24.0731 29.173 24.0811C29.1201 24.0964 29.0699 24.111 29.0112 24.0649C29.0266 24.0571 29.039 24.0473 29.0513 24.0375C29.076 24.0178 29.1002 23.9986 29.1468 23.9986V23.9324C29.1468 23.909 29.17 23.909 29.1933 23.909C29.17 23.909 29.1468 23.8857 29.1468 23.8857C29.1591 23.8609 29.1833 23.8558 29.2103 23.8501C29.2343 23.8451 29.2605 23.8396 29.2824 23.8194C29.2591 23.8194 29.2165 23.8194 29.2165 23.796C29.2824 23.7064 29.3947 23.6831 29.507 23.6597C29.4954 23.6363 29.4731 23.6363 29.4538 23.6363C29.4344 23.6363 29.4179 23.6363 29.4179 23.6129C29.4179 23.5896 29.4412 23.5896 29.4644 23.5896H29.4179C29.3815 23.5712 29.3879 23.5385 29.3924 23.5158C29.3936 23.5096 29.3947 23.5041 29.3947 23.4999C29.4857 23.3927 29.5156 23.2662 29.5454 23.1404C29.5599 23.0788 29.5745 23.0173 29.5961 22.9584C29.5729 22.9584 29.5496 22.9584 29.5496 22.935C29.3318 23.1767 28.9866 23.2683 28.6587 23.3554L28.6277 23.3636H28.5154C28.4031 23.4103 28.2443 23.4103 28.1319 23.3402C28.0785 23.3122 28.0404 23.2771 27.9993 23.2393C27.9718 23.214 27.9429 23.1875 27.9073 23.161C27.7252 23.048 27.547 22.9584 27.3456 22.8883C26.7839 22.709 26.199 22.6155 25.6141 22.6389C25.7775 22.5491 25.9509 22.5133 26.1266 22.4771C26.2176 22.4584 26.3093 22.4395 26.4004 22.4129C26.458 22.396 26.515 22.3785 26.5716 22.3611C26.8929 22.2626 27.2046 22.1671 27.547 22.187C27.5022 22.1711 27.4448 22.1768 27.392 22.1821C27.3672 22.1846 27.3434 22.187 27.3224 22.187C27.0634 22.1677 26.8019 22.2253 26.529 22.2855C26.4712 22.2982 26.4129 22.3111 26.354 22.3233C26.2471 22.3456 26.1455 22.3775 26.0437 22.4095C25.9315 22.4448 25.8191 22.4801 25.6993 22.5025C25.6474 22.5205 25.6056 22.551 25.565 22.5807C25.4996 22.6285 25.437 22.6743 25.3391 22.6623V22.5922C25.5638 22.3194 25.8349 22.0506 26.1952 22.0272C26.5434 21.9705 26.8717 22.0109 27.2142 22.053C27.2718 22.0601 27.3297 22.0673 27.3882 22.074C27.669 22.0966 27.9317 22.1592 28.2148 22.2267L28.2443 22.2337C28.3062 22.2337 28.3411 22.2883 28.3748 22.3411C28.4023 22.384 28.429 22.4258 28.4689 22.4363C28.5241 22.4553 28.5792 22.4589 28.6344 22.4624C28.7148 22.4676 28.7952 22.4728 28.8756 22.5259C28.8756 22.5102 28.873 22.4949 28.8704 22.4798C28.8653 22.4499 28.8602 22.4206 28.8756 22.3896C28.9256 22.3393 28.9829 22.3528 29.0393 22.3661C29.0834 22.3764 29.127 22.3867 29.1662 22.3662C29.289 22.29 29.1738 22.1729 29.0585 22.0558C29.0029 21.9993 28.9472 21.9428 28.9182 21.8909C28.9182 21.8675 28.9415 21.8441 28.9415 21.8441C28.9924 21.8897 29.0398 21.9369 29.0867 21.9837C29.2043 22.1008 29.3194 22.2153 29.4799 22.2961C29.5922 22.3428 29.8634 22.409 29.8169 22.2727C29.7373 22.0961 29.6014 21.9429 29.4642 21.7883C29.4077 21.7246 29.351 21.6607 29.2979 21.5948V21.5052C29.2625 21.5052 29.2541 21.4917 29.2435 21.4749C29.2402 21.4696 29.2367 21.464 29.232 21.4584V21.3688C29.1752 21.339 29.1625 21.2918 29.1497 21.2443C29.1424 21.2173 29.1351 21.1902 29.1197 21.1662C29.0808 21.1033 29.0781 21.0259 29.0752 20.946C29.0729 20.8825 29.0705 20.8175 29.0499 20.7571C29.0035 20.6207 28.9841 20.5078 28.9609 20.3714C28.9356 20.2319 28.9079 20.0985 28.8807 19.9679C28.8328 19.7374 28.7866 19.5157 28.7594 19.2844C28.7236 18.9538 28.8905 18.6743 29.0612 18.3885C29.1118 18.3037 29.1627 18.2185 29.2088 18.1312C29.3676 17.8584 29.5458 17.5896 29.8401 17.4065C29.9044 17.1405 30.0791 16.919 30.253 16.6985L30.2662 16.6818C30.4379 16.4679 30.7245 16.3371 30.9357 16.2408L30.9596 16.2299C31.2734 16.0896 31.5561 16 31.56 16H16V27.996H27.0396C27.3348 27.782 27.6283 27.6469 27.9775 27.4862C28.1369 27.4129 28.3079 27.3342 28.496 27.2402C28.5359 27.2201 28.5832 27.1968 28.6357 27.171C28.951 27.0159 29.4534 26.7687 29.6426 26.5817ZM26.1396 24.9633C26.0958 24.9677 26.0494 24.9723 26.0669 24.9372C26.0832 24.8583 26.1639 24.8347 26.2428 24.8116C26.2765 24.8017 26.31 24.7919 26.3378 24.7779L26.3505 24.7714L26.3598 24.7664C26.4035 24.7432 26.457 24.7148 26.4965 24.7313C26.5231 24.7692 26.5561 24.779 26.5881 24.7884C26.612 24.7955 26.6353 24.8024 26.6551 24.8207C26.5714 24.9047 26.4737 24.913 26.3747 24.9214C26.3089 24.9269 26.2425 24.9326 26.1791 24.9605C26.1678 24.9605 26.1538 24.9619 26.1396 24.9633ZM22.7126 24.4154C22.7126 24.4388 22.7359 24.4622 22.7359 24.4622C23.2782 23.8505 23.7701 23.3284 24.4673 22.8959C24.486 22.8881 24.4791 22.8979 24.4698 22.9109C24.4561 22.9302 24.4373 22.9567 24.4906 22.9427C24.7214 22.8901 24.8251 22.6923 24.9259 22.5C24.952 22.4502 24.9779 22.4008 25.0058 22.3544C25.1115 22.1823 25.2618 22.0721 25.4132 21.9611C25.5223 21.881 25.6321 21.8004 25.7262 21.696C25.7262 21.7193 25.7262 21.7427 25.703 21.7661C25.7262 21.7895 25.7495 21.7895 25.7727 21.7895C25.8136 21.7586 25.8582 21.7459 25.901 21.7336C25.9555 21.718 26.007 21.7033 26.0439 21.6531C25.8657 21.583 25.6372 21.5596 25.459 21.6297C24.9864 21.8557 24.5836 22.218 24.2001 22.6271C23.9677 22.8726 23.7275 23.1024 23.4331 23.2622C23.2317 23.6674 23.007 24.0297 22.7126 24.4154ZM24.6037 22.9664C24.5916 22.9908 24.5794 23.0035 24.5678 23.0156C24.5573 23.0266 24.5471 23.0372 24.5379 23.0557C24.5147 23.1023 24.4915 23.1217 24.4489 23.145C24.4257 23.145 24.4025 23.145 24.4025 23.1217C24.4257 23.0324 24.4915 22.9431 24.5805 22.9198C24.6037 22.9237 24.6037 22.947 24.6037 22.9664ZM25.5942 26.4264C25.6136 26.4069 25.6368 26.3835 25.6484 26.3601C25.6677 26.3134 25.5478 26.3251 25.5284 26.3368C25.5109 26.3509 25.4997 26.365 25.4862 26.3821L25.482 26.3874C25.4659 26.406 25.447 26.4232 25.4278 26.4406C25.4148 26.4525 25.4016 26.4644 25.3891 26.477C25.3349 26.5316 25.2808 26.5861 25.2227 26.6368C25.184 26.6718 25.3078 26.6874 25.3349 26.664C25.3659 26.6407 25.393 26.6134 25.4201 26.5861C25.4304 26.5861 25.4407 26.5844 25.4476 26.5832L25.4523 26.5825L25.4549 26.5822C25.5191 26.5607 25.5668 26.516 25.6132 26.4726L25.6252 26.4614C25.6407 26.4459 25.6213 26.4303 25.5942 26.4264ZM25.244 26.173C25.2436 26.1731 25.2433 26.1732 25.243 26.1734C25.2426 26.1739 25.2426 26.1749 25.2426 26.1768C25.2188 26.1931 25.1953 26.2097 25.1719 26.2263C25.1114 26.2691 25.0512 26.3117 24.9869 26.3483C24.9255 26.3829 24.8625 26.4128 24.7989 26.4429C24.7623 26.4603 24.7255 26.4778 24.6886 26.4963C24.6886 26.4963 24.6886 26.4924 24.6848 26.4924C24.677 26.4807 24.6615 26.4768 24.646 26.4846C24.5608 26.5314 24.4872 26.5937 24.4214 26.6599C24.4097 26.6677 24.3981 26.6794 24.3904 26.6911L24.3555 26.7262V26.7301C24.34 26.7457 24.3245 26.7612 24.3052 26.7846C24.3011 26.7887 24.298 26.7927 24.2951 26.7966C24.2895 26.8039 24.2843 26.8107 24.2742 26.8158C24.2587 26.8236 24.2199 26.8236 24.2238 26.8002V26.7963C24.2122 26.8041 24.1967 26.8119 24.1851 26.8158C24.1793 26.8197 24.1735 26.8226 24.1677 26.8255C24.1618 26.8284 24.156 26.8314 24.1502 26.8353C24.1463 26.8314 24.1386 26.8314 24.1347 26.8314C24.1309 26.8314 24.1231 26.8314 24.1192 26.8353C24.1102 26.8431 24.1012 26.8504 24.0921 26.8578C24.074 26.8725 24.056 26.8872 24.0379 26.9054C23.9914 26.9483 23.9488 26.995 23.9062 27.0457C23.9062 27.0457 23.9062 27.0495 23.9023 27.0495C23.9023 27.0515 23.9013 27.0525 23.9004 27.0534C23.8994 27.0544 23.8984 27.0554 23.8984 27.0573L23.8907 27.0651C23.8892 27.0666 23.8883 27.0681 23.8875 27.0694C23.8863 27.0714 23.8853 27.0729 23.8829 27.0729L23.8791 27.0768C23.8752 27.0846 23.8713 27.0924 23.8636 27.1002C23.8597 27.1041 23.852 27.108 23.8442 27.108C23.8403 27.1041 23.8365 27.1002 23.8365 27.0963C23.8345 27.0944 23.8336 27.0924 23.8326 27.0905C23.8316 27.0885 23.8307 27.0866 23.8287 27.0846C23.8248 27.0788 23.8219 27.0729 23.819 27.0671C23.8161 27.0612 23.8132 27.0554 23.8094 27.0495V27.0457C23.8094 27.0437 23.8084 27.0418 23.8074 27.0398C23.8064 27.0379 23.8055 27.0359 23.8055 27.034L23.8752 26.9521L23.8791 26.9483C23.8829 26.9444 23.8868 26.9395 23.8907 26.9346C23.8946 26.9298 23.8984 26.9249 23.9023 26.921C23.9081 26.9132 23.9149 26.9054 23.9217 26.8976C23.9285 26.8898 23.9352 26.882 23.9411 26.8742C23.943 26.8703 23.9449 26.8674 23.9469 26.8645C23.9488 26.8616 23.9507 26.8586 23.9527 26.8547C23.9759 26.8236 23.9992 26.7924 24.0224 26.7573V26.7534C24.0263 26.7496 24.0301 26.7457 24.0301 26.7379C24.0418 26.7223 24.0534 26.7067 24.0611 26.6911L24.0844 26.6444V26.6405L24.0882 26.6366C24.0882 26.6346 24.0892 26.6336 24.0902 26.6327C24.0912 26.6317 24.0921 26.6307 24.0921 26.6288C24.096 26.619 24.0999 26.6103 24.1037 26.6015C24.1076 26.5928 24.1115 26.584 24.1154 26.5742V26.5703L24.1192 26.5547C24.1212 26.5509 24.1221 26.547 24.1231 26.5431C24.1241 26.5392 24.125 26.5353 24.127 26.5314V26.5275C24.1289 26.5216 24.1299 26.5158 24.1309 26.5099C24.1318 26.5041 24.1328 26.4983 24.1347 26.4924C24.1347 26.4885 24.1347 26.4807 24.1309 26.4768C24.1541 26.434 24.1851 26.395 24.2199 26.356C24.218 26.356 24.2161 26.357 24.2141 26.358C24.213 26.3586 24.2119 26.3591 24.2108 26.3595C24.21 26.3598 24.2092 26.3599 24.2083 26.3599C24.1911 26.3708 24.1762 26.3852 24.1611 26.4C24.1491 26.4117 24.1369 26.4236 24.1231 26.434C24.0999 26.4535 24.0534 26.4223 24.0844 26.3989C24.1037 26.3833 24.1192 26.3677 24.1347 26.3522C24.1347 26.3522 24.1347 26.3483 24.1386 26.3483C24.154 26.3343 24.1689 26.3184 24.1838 26.3025C24.2064 26.2784 24.2292 26.254 24.2548 26.2353C24.2819 26.2158 24.3013 26.2002 24.3245 26.1807C24.3284 26.1768 24.3323 26.1729 24.3362 26.1729C24.3516 26.1535 24.3671 26.134 24.3865 26.1145C24.3865 26.1145 24.3904 26.1145 24.3904 26.1106C24.5234 25.9816 24.7103 25.9361 24.9011 25.8896C25.0214 25.8603 25.1433 25.8307 25.2542 25.7794C25.3168 25.7534 25.3866 25.7636 25.4556 25.7738C25.5104 25.7818 25.5647 25.7898 25.6144 25.7794C25.6803 25.7794 25.75 25.7794 25.8158 25.8262C25.6627 25.9077 25.5165 26.001 25.3719 26.0933C25.33 26.12 25.2882 26.1467 25.2464 26.1729C25.2454 26.1729 25.2446 26.1729 25.244 26.173ZM25.7281 24.5851C25.7099 24.5872 25.6982 24.5885 25.7082 24.5986C25.7741 24.6649 25.9097 24.6415 26.0026 24.5909C26.0685 24.5441 26.1382 24.5441 26.2273 24.5441C26.2505 24.5441 26.2505 24.5012 26.2505 24.4779C26.3164 24.5012 26.3629 24.5012 26.4287 24.5012C26.9671 24.3883 27.4862 24.2753 27.982 24.0259C27.4803 23.6383 26.8618 23.4656 26.256 23.2965C26.1555 23.2684 26.0554 23.2405 25.9561 23.2116C25.978 23.2116 25.9998 23.2189 26.0217 23.2262C26.066 23.241 26.1109 23.2559 26.1576 23.2116C26.0961 23.1626 26.0277 23.1532 25.9599 23.144C25.9038 23.1363 25.8482 23.1286 25.7973 23.0987C25.8026 23.0987 25.809 23.0999 25.8158 23.1012C25.839 23.1057 25.8685 23.1114 25.8864 23.0753C25.7688 23.0161 25.6511 22.996 25.5323 22.9757C25.4712 22.9653 25.4098 22.9548 25.348 22.9389C25.4603 22.9155 25.5301 22.8259 25.5301 22.7129C25.5301 22.6896 25.4836 22.6896 25.4603 22.6896C25.1931 22.8259 25.011 23.0753 24.8987 23.3675C24.9999 23.4271 25.1091 23.4202 25.2161 23.4134C25.2769 23.4096 25.3369 23.4058 25.3945 23.4142C25.3437 23.4625 25.2703 23.4756 25.1997 23.4882C25.1734 23.4929 25.1475 23.4975 25.1233 23.5038C25.0536 23.5194 24.9878 23.5701 25.011 23.6168C25.0265 23.6363 25.042 23.6441 25.0614 23.648C25.011 23.6636 24.9645 23.687 24.9219 23.7298C24.9857 23.78 25.0514 23.7703 25.1163 23.7608C25.1421 23.757 25.1677 23.7532 25.1931 23.7532C25.1931 23.7815 25.2116 23.7911 25.2309 23.8011C25.2409 23.8062 25.251 23.8115 25.2589 23.8194C25.1466 23.8623 25.0575 23.9558 25.0342 24.022C25.0065 24.0895 24.9552 24.1334 24.9044 24.1768C24.8701 24.2062 24.8361 24.2353 24.8096 24.2714V24.3415C24.7348 24.4078 24.6578 24.4671 24.582 24.5255C24.4262 24.6455 24.2748 24.7621 24.155 24.9298C24.1782 24.9298 24.1782 24.9532 24.1782 24.9766C24.1568 25.0089 24.1263 25.0313 24.0974 25.0525C24.0636 25.0774 24.0319 25.1006 24.0194 25.1363C24.0194 25.1597 24.0194 25.1831 24.0426 25.1831C24.1848 25.1361 24.3077 25.057 24.4283 24.9794C24.5377 24.9091 24.6452 24.84 24.7631 24.7973C24.8595 24.7742 24.9434 24.7305 25.0253 24.6878C25.0948 24.6516 25.1628 24.6162 25.2357 24.5947C25.2918 24.5831 25.3538 24.5665 25.4158 24.5499C25.4778 24.5334 25.5397 24.5168 25.5959 24.5051C25.5959 24.5285 25.5959 24.5519 25.6192 24.5519H25.7973C25.7864 24.5784 25.7518 24.5824 25.7281 24.5851Z" fill="#000091"/>
<path d="M49.0001 16H36.0967C36.0967 16 36.1201 16.0039 36.2176 16.0546C36.3229 16.1092 36.4594 16.1834 36.5413 16.2263C36.7091 16.3121 36.869 16.4213 36.9743 16.5891C37.0211 16.6554 37.0874 16.7919 37.0445 16.8817C36.9977 16.9948 36.9743 17.1782 36.8612 17.2211C36.7247 17.2913 36.5452 17.2913 36.3853 17.2679C36.2956 17.2679 36.2059 17.2445 36.1123 17.2211C36.4516 17.3576 36.7715 17.5176 36.9977 17.8336C37.0211 17.8804 37.1108 17.8999 37.2006 17.8999C37.224 17.8999 37.224 17.9467 37.224 17.9662C37.1771 18.013 37.1342 18.0364 37.1576 18.1027H37.224C37.3371 18.0559 37.3137 17.8296 37.4736 17.8999C37.5867 17.9662 37.6335 18.1261 37.5633 18.2393C37.4736 18.329 37.3839 18.3992 37.2903 18.4655C37.2669 18.5124 37.2669 18.5787 37.2903 18.6255C37.3566 18.7152 37.38 18.8049 37.4034 18.8986C37.4736 19.0585 37.4931 19.238 37.5633 19.3979C37.653 19.7373 37.7427 20.0767 37.7232 20.42C37.7232 20.5995 37.6335 20.7594 37.6998 20.9428C37.7466 21.1222 37.8598 21.2588 37.9495 21.4187C38.0392 21.5553 38.1289 21.645 38.1991 21.7815C38.3356 22.0078 38.5853 22.2341 38.4722 22.5072C38.4059 22.6671 38.1562 22.6437 37.9963 22.7334C37.8598 22.8466 37.9729 23.0299 38.0431 23.143C38.1562 23.3459 37.9066 23.4824 37.7466 23.5527C37.7935 23.6229 37.8832 23.5995 37.9066 23.6424C37.93 23.7555 38.0431 23.8218 37.9729 23.9389C37.8832 24.0754 37.6101 24.1417 37.7466 24.3485C37.8364 24.5085 37.7779 24.684 37.7232 24.8479C37.6569 25.0507 37.4736 25.1404 37.3137 25.1873C37.1771 25.2341 37.0172 25.2341 36.8846 25.2107C36.8378 25.1873 36.7949 25.1638 36.7481 25.1638C36.3619 25.117 35.9757 25.0078 35.5935 25.0078C35.4804 25.0312 35.3672 25.0507 35.2775 25.0975C35.1761 25.1717 35.0825 25.2536 35.0045 25.3394C35.0045 25.3394 35.0045 25.3394 35.0006 25.3433C34.985 25.3628 34.9655 25.3784 34.9499 25.3979C34.9421 25.4096 34.9304 25.4213 34.9226 25.433C34.9148 25.4408 34.9109 25.4486 34.9031 25.4564C34.8368 25.5384 34.7782 25.6281 34.7236 25.7178C34.7197 25.7256 34.7158 25.7295 34.7119 25.7334C34.708 25.7451 34.7002 25.7529 34.6924 25.7646C34.6183 25.9012 34.5637 26.0416 34.5208 26.1821C34.3648 26.7009 34.435 27.1456 34.5442 27.2549C34.5754 27.2861 35.2931 27.5085 35.7924 27.7308C36.0265 27.8362 36.1903 27.9142 36.3268 28H48.9962V16H49.0001Z" fill="#E1000F"/>
<path d="M36.8631 20.3747C36.9526 20.3981 37.0888 20.3981 37.0888 20.4448C37.0421 20.624 36.7736 20.6708 36.6375 20.8539H36.5674C36.5013 20.9006 36.5208 21.0136 36.4546 21.0136C36.3885 20.9903 36.3185 21.0136 36.2523 21.037C36.3418 21.1266 36.4546 21.1967 36.5908 21.1734C36.6141 21.1734 36.6569 21.2201 36.6569 21.263C36.6569 21.263 36.6803 21.263 36.7036 21.2396C36.727 21.2396 36.7503 21.2396 36.7503 21.263V21.3526C36.6842 21.4422 36.5674 21.3993 36.478 21.4188C36.6608 21.4656 36.8398 21.4656 36.9993 21.4188C37.1355 21.3721 36.9993 21.1461 37.0888 21.0331C37.0421 21.0331 37.0888 20.963 37.0421 20.963C37.0888 20.9162 37.1316 20.85 37.1782 20.8266C37.2249 20.8266 37.2911 20.8032 37.3144 20.7565C37.3144 20.7097 37.2249 20.6903 37.2444 20.6435C37.3806 20.5539 37.4934 20.4175 37.4467 20.2812C37.4233 20.211 37.2444 20.211 37.1316 20.1682C37.0187 20.1253 36.8826 20.1682 36.7464 20.1916C36.6336 20.1916 36.5208 20.2617 36.4079 20.2812C36.2484 20.3279 36.1123 20.4175 35.98 20.5071C36.1395 20.4409 36.2951 20.4175 36.478 20.3708C36.6141 20.3747 36.727 20.3435 36.8631 20.3747" fill="#808080"/>
<path d="M17.648 48V36.8H21.072C23.536 36.8 25.056 38.064 25.056 40.144C25.056 41.504 24.4 42.512 23.248 43.04L26.752 48H24.08L21.088 43.472H19.92V48H17.648ZM21.2 38.688H19.92V41.584H21.2C22.16 41.584 22.72 41.024 22.72 40.112C22.72 39.264 22.16 38.688 21.2 38.688ZM32.7231 35.84H30.6591L32.4671 33.68H34.8031L32.7231 35.84ZM28.4511 48V36.8H34.9791V38.688H30.7231V41.344H34.3391V43.232H30.7231V46.112H34.9791V48H28.4511ZM37.8793 48V36.8H41.5753C44.0393 36.8 45.5433 38.064 45.5433 40.144C45.5433 42.208 44.0393 43.472 41.5753 43.472H40.1513V48H37.8793ZM41.6713 38.688H40.1513V41.584H41.6713C42.6313 41.584 43.2073 41.024 43.2073 40.112C43.2073 39.264 42.6313 38.688 41.6713 38.688ZM54.2874 43.808V36.8H56.5594V43.616C56.5594 46.56 54.8314 48.32 52.0154 48.32C49.2154 48.32 47.4874 46.56 47.4874 43.616V36.8H49.7594V43.808C49.7594 45.312 50.6074 46.192 52.0314 46.192C53.4234 46.192 54.2874 45.312 54.2874 43.808ZM59.6418 48V36.8H62.9378C65.2738 36.8 66.6978 37.952 66.6978 39.84C66.6978 40.752 66.2818 41.536 65.4978 42.048C66.6818 42.576 67.3378 43.536 67.3378 44.704C67.3378 46.752 65.7538 48 63.1778 48H59.6418ZM62.9858 38.688H61.9138V41.216H62.9858C63.8498 41.216 64.3618 40.752 64.3618 39.936C64.3618 39.152 63.8498 38.688 62.9858 38.688ZM63.3058 43.104H61.9138V46.112H63.3058C64.3618 46.112 65.0018 45.552 65.0018 44.608C65.0018 43.648 64.3618 43.104 63.3058 43.104ZM69.9293 48V36.8H72.2013V45.936H76.4573V48H69.9293ZM78.7167 48V36.8H80.9887V48H78.7167ZM93.7712 47.712C94.6352 48.496 95.4032 48.784 96.1232 48.784C96.3632 48.784 96.6832 48.752 96.9232 48.656V50.576C96.5552 50.72 96.2352 50.784 95.7392 50.784C94.4912 50.784 93.3392 50.272 92.2352 49.312L90.9072 48.128C90.4272 48.256 89.9152 48.32 89.3712 48.32C85.8352 48.32 83.4192 45.6 83.4192 42.4C83.4192 39.2 85.8352 36.48 89.3712 36.48C92.8912 36.48 95.3072 39.2 95.3072 42.4C95.3072 44.272 94.4752 45.984 93.0992 47.072L93.7712 47.712ZM89.3712 46.192C91.4672 46.192 92.9712 44.544 92.9712 42.4C92.9712 40.256 91.4672 38.608 89.3712 38.608C87.2592 38.608 85.7552 40.256 85.7552 42.4C85.7552 44.544 87.2592 46.192 89.3712 46.192ZM104.35 43.808V36.8H106.622V43.616C106.622 46.56 104.894 48.32 102.078 48.32C99.2779 48.32 97.5499 46.56 97.5499 43.616V36.8H99.8219V43.808C99.8219 45.312 100.67 46.192 102.094 46.192C103.486 46.192 104.35 45.312 104.35 43.808ZM109.704 48V36.8H116.232V38.688H111.976V41.344H115.592V43.232H111.976V46.112H116.232V48H109.704ZM17.648 66V54.8H24.176V56.688H19.92V59.344H23.536V61.232H19.92V66H17.648ZM26.4355 66V54.8H29.8595C32.3235 54.8 33.8435 56.064 33.8435 58.144C33.8435 59.504 33.1875 60.512 32.0355 61.04L35.5395 66H32.8675L29.8755 61.472H28.7075V66H26.4355ZM29.9875 56.688H28.7075V59.584H29.9875C30.9475 59.584 31.5075 59.024 31.5075 58.112C31.5075 57.264 30.9475 56.688 29.9875 56.688ZM36.315 66L40.555 54.8H43.531L47.771 66H45.355L44.283 63.088H39.803L38.731 66H36.315ZM40.507 61.152H43.579L42.043 56.944L40.507 61.152ZM49.7605 66V54.8H52.6725L57.6805 62.896V54.8H59.9525V66H57.0405L52.0325 57.904V66H49.7605ZM68.3369 64.192C69.6169 64.192 70.6249 63.568 71.2649 62.656L73.0569 64.032C72.1929 65.216 70.8489 66.048 69.2169 66.256L67.8249 68.576H65.8089L67.2169 66.224C64.3049 65.712 62.3849 63.248 62.3849 60.4C62.3849 57.2 64.8009 54.48 68.3369 54.48C70.3689 54.48 72.0329 55.392 73.0569 56.752L71.2649 58.144C70.6249 57.232 69.6169 56.608 68.3369 56.608C66.2249 56.608 64.7209 58.256 64.7209 60.4C64.7209 62.544 66.2249 64.192 68.3369 64.192ZM73.8025 66L78.0425 54.8H81.0185L85.2585 66H82.8425L81.7705 63.088H77.2905L76.2185 66H73.8025ZM77.9945 61.152H81.0665L79.5305 56.944L77.9945 61.152ZM87.248 66V54.8H89.52V66H87.248ZM91.9025 64.448L93.5505 62.928C94.2225 63.792 95.1185 64.304 96.0305 64.304C96.9265 64.304 97.4705 63.824 97.4705 63.024C97.4705 60.96 92.3825 61.52 92.3825 57.728C92.3825 55.952 93.8545 54.48 95.9985 54.48C97.6785 54.48 98.9585 55.232 99.9185 56.368L98.2545 57.872C97.5985 57.024 96.8625 56.464 96.0145 56.464C95.2145 56.464 94.6865 56.976 94.6865 57.648C94.6865 59.68 99.7745 59.104 99.7745 62.944C99.7425 65.056 98.1105 66.32 96.0465 66.32C94.1585 66.32 92.8945 65.632 91.9025 64.448ZM102.417 66V54.8H108.945V56.688H104.689V59.344H108.305V61.232H104.689V64.112H108.945V66H102.417Z" fill="black"/>
<path fill-rule="evenodd" clip-rule="evenodd" d="M47.18 88.6142L46.0638 89.6341H45.7758L46.4359 88.4702H47.18V88.6142ZM46.3759 92.5616H46.1359C45.8358 92.9216 45.4998 93.2096 45.1757 93.2096C44.8397 93.2096 44.6717 93.0056 44.6717 92.5616C44.6717 92.3816 44.6957 92.1896 44.7317 92.0216L46.688 91.3737C47.072 90.4617 46.6159 90.0657 46.0759 90.0657C45.1517 90.0657 44.0956 91.6856 44.0956 92.9816C44.0956 93.5935 44.3836 93.9295 44.8397 93.9295C45.3678 93.9175 45.9198 93.4016 46.3759 92.5616ZM45.7046 90.594C45.9686 90.594 46.1966 90.798 46.0766 91.266L44.8644 91.59C45.0565 91.014 45.4165 90.594 45.7046 90.594ZM41.8886 90.6177H42.5367L41.5045 93.4496C41.4085 93.6896 41.5405 93.9295 41.7925 93.9295C42.5247 93.9295 43.4008 93.3056 43.7368 92.4176H43.5568C43.2928 92.7896 42.7167 93.1976 42.2846 93.2696L43.2328 90.6177H44.2049L44.3249 90.2098H43.3768L43.7368 89.1898H43.3648L42.6927 90.2098L41.8886 90.3178V90.6177ZM40.9878 90.0784C41.1198 90.0784 41.2998 90.2224 41.2158 90.4864L40.0516 93.3063C40.3517 93.2583 40.6637 92.9703 40.8438 92.7063H41.0358C40.7597 93.4142 40.1356 93.9302 39.5956 93.9302C39.4636 93.9302 39.2715 93.7862 39.3675 93.5222L40.4477 90.7024C40.1477 90.7504 39.8356 91.0384 39.6556 91.3024H39.4756C39.7516 90.5824 40.4237 90.0784 40.9878 90.0784ZM41.3246 89.3582C41.5647 89.3582 41.7687 89.1662 41.7687 88.9142C41.7687 88.6742 41.5647 88.4702 41.3246 88.4702C41.0726 88.4702 40.8806 88.6742 40.8806 88.9142C40.8806 89.1542 41.0846 89.3582 41.3246 89.3582ZM36.0797 91.6983C36.3437 91.1224 36.2477 90.8584 36.0797 90.8584C35.9357 90.8584 35.7676 91.0144 35.5996 91.3024H35.4196C35.6956 90.6904 36.0557 90.0784 36.4517 90.0784C36.7878 90.0784 36.9078 90.4144 36.9078 90.7864V91.3144C36.9618 91.2515 37.0144 91.1898 37.0658 91.1296L37.0667 91.1285L37.0675 91.1276C37.5745 90.5326 37.9617 90.0784 38.408 90.0784C38.7561 90.0784 38.9361 90.2944 38.9361 90.6184C38.9361 90.8104 38.8761 91.0504 38.7441 91.3024L37.7479 93.3063C38.048 93.2583 38.36 92.9703 38.54 92.7063H38.7201C38.444 93.4262 37.7719 93.9302 37.2079 93.9302C36.9558 93.9302 36.8118 93.6662 36.9198 93.4502L38.072 91.2304C38.204 90.9784 38.228 90.8104 38.024 90.8104C37.7479 90.8104 37.0998 91.2664 36.7518 91.6863L35.9957 93.6782C35.9117 93.8822 35.8277 93.9302 35.6356 93.9302C35.3236 93.9302 35.1676 93.7262 35.3116 93.4022L36.0797 91.6983ZM35.2987 90.9297C35.4307 90.4737 35.3587 90.0657 35.0106 90.0657C34.5766 90.0657 34.4407 90.3524 34.02 91.2394L33.9905 91.3017V90.7737C33.9905 90.4017 33.8705 90.0657 33.5344 90.0657C33.1384 90.0657 32.7783 90.6777 32.5023 91.2897H32.6823C32.8743 91.0137 33.0544 90.8457 33.1984 90.8457C33.3664 90.8457 33.4624 91.1097 33.1984 91.6856L32.4303 93.3896C32.2863 93.7135 32.4423 93.9175 32.7543 93.9175C32.9464 93.9175 33.0304 93.8695 33.1144 93.6655L33.8705 91.6736C34.0865 91.4097 34.2785 91.1817 34.5186 90.9297H35.2987ZM31.5064 91.266C31.6264 90.798 31.3984 90.594 31.1344 90.594C30.8463 90.594 30.4863 91.014 30.2942 91.59L31.5064 91.266ZM31.8057 92.5616H31.5657C31.2656 92.9216 30.9296 93.2096 30.6055 93.2096C30.2695 93.2096 30.1015 93.0056 30.1015 92.5616C30.1015 92.3816 30.1255 92.1896 30.1615 92.0216L32.1178 91.3737C32.5018 90.4617 32.0458 90.0657 31.5057 90.0657C30.5815 90.0657 29.5254 91.6856 29.5254 92.9816C29.5254 93.5935 29.8134 93.9295 30.2695 93.9295C30.7976 93.9175 31.3497 93.4016 31.8057 92.5616ZM27.9665 90.6177H27.3184V90.3178L28.1225 90.2098L28.7946 89.1898H29.1666L28.8066 90.2098H29.7547L29.6347 90.6177H28.6626L27.7144 93.2696C28.1465 93.1976 28.7226 92.7896 28.9866 92.4176H29.1666C28.8306 93.3056 27.9545 93.9295 27.2224 93.9295C26.9703 93.9295 26.8383 93.6896 26.9343 93.4496L27.9665 90.6177ZM23.8865 92.8139C23.8865 91.9379 24.8586 90.762 25.3987 90.762C25.5187 90.762 25.6387 90.774 25.7347 90.81L25.1707 92.3219C24.8466 92.7179 24.3425 93.1979 24.1025 93.1979C23.9705 93.1979 23.8865 93.0779 23.8865 92.8139ZM26.5632 89.8861L26.8632 89.9101L25.8191 92.3099C25.567 92.8859 25.675 93.1499 25.8191 93.1499C25.9631 93.1499 26.1431 92.9819 26.3351 92.7059H26.5152C26.2391 93.3179 25.8791 93.9298 25.483 93.9298C25.147 93.9298 24.9429 93.5699 25.0029 92.9219L25.0269 92.6939L24.9616 92.7852C24.5317 93.3861 24.1427 93.9298 23.7428 93.9298C23.3947 93.9298 23.2147 93.7138 23.2147 93.3899C23.2147 91.9979 24.7389 90.222 26.1671 90.222H26.2271L26.5632 89.8861ZM23.814 90.9297C23.946 90.4737 23.874 90.0657 23.526 90.0657C23.0919 90.0657 22.956 90.3524 22.5354 91.2394L22.5058 91.3017V90.7737C22.5058 90.4017 22.3858 90.0657 22.0498 90.0657C21.6537 90.0657 21.2937 90.6777 21.0176 91.2897H21.1976C21.3897 91.0137 21.5697 90.8457 21.7017 90.8457C21.8697 90.8457 21.9658 91.1097 21.7017 91.6856L20.9336 93.4016C20.7896 93.7255 20.9456 93.9295 21.2576 93.9295C21.4497 93.9295 21.5337 93.8815 21.6177 93.6775L22.3738 91.6856C22.5898 91.4217 22.7819 91.1937 23.0219 90.9417H23.814V90.9297ZM18.8684 93.5688L18.7964 93.7848H16L16.072 93.5568C16.9361 93.4008 17.0802 93.3288 17.4402 92.3569L18.2203 90.269C18.5684 89.2971 18.4964 89.2251 17.7403 89.0691L17.8123 88.8531H21.4488L21.2328 90.017H20.9687C20.9687 89.3211 20.8967 89.1411 20.2366 89.1411H20.0686C19.4205 89.1411 19.3365 89.2371 19.1565 89.741L18.6404 91.145H19.3965C19.9006 91.145 20.0926 90.833 20.3206 90.425H20.5847L19.9606 92.1289H19.6965C19.7565 91.6129 19.7565 91.4089 19.2885 91.4089H18.5324L18.1843 92.3689C17.8081 93.368 17.9156 93.3884 18.8115 93.558C18.8301 93.5616 18.8491 93.5651 18.8684 93.5688Z" fill="black"/>
<path fill-rule="evenodd" clip-rule="evenodd" d="M21.2448 79.4341L20.1286 80.2385V80.2505H19.8405L20.5006 79.29H21.2448V79.4341ZM29.0472 85.0648L30.8355 80.3105L30.7755 80.2384L29.5393 80.3825V80.5266L29.7793 80.7066C29.9843 80.8661 29.93 81.0147 29.76 81.4805L29.7313 81.5591L28.3631 85.2089C28.2551 85.425 28.3991 85.6891 28.6511 85.6891C29.2152 85.6891 29.8153 85.1728 30.0914 84.4645H29.9114C29.7193 84.7286 29.3353 85.0168 29.0472 85.0648ZM37.2438 81.403L38.36 80.3825V80.2384H37.6159L36.9558 81.403H37.2438ZM37.315 84.3204H37.5551C37.111 85.1728 36.5589 85.6891 36.0308 85.6891C35.5747 85.6891 35.2867 85.3529 35.2867 84.7406C35.2867 83.444 36.3429 81.8232 37.267 81.8232C37.7951 81.8232 38.2632 82.2194 37.8791 83.1318L35.9108 83.7801C35.8748 83.9482 35.8508 84.1403 35.8508 84.3204C35.8508 84.7646 36.0188 84.9687 36.3549 84.9687C36.6789 84.9687 37.015 84.6806 37.315 84.3204ZM37.2544 83.0238C37.3745 82.5676 37.1464 82.3635 36.8824 82.3635C36.6063 82.3635 36.2463 82.7837 36.0422 83.348L37.2544 83.0238ZM33.7258 82.3872H33.0777V82.0871L33.8818 81.979L34.554 80.9585H34.926L34.566 81.979H35.5141L35.3941 82.3872H34.4219L33.4738 85.0405C33.9058 84.9685 34.4819 84.5603 34.746 84.1881H34.926C34.59 85.0765 33.7138 85.7008 32.9817 85.7008C32.7296 85.7008 32.5976 85.4607 32.6936 85.2206L33.7258 82.3872ZM32.4055 82.2431C32.4775 81.979 32.3095 81.8349 32.1655 81.8349C31.6014 81.8349 30.9292 82.3512 30.6532 83.0595H30.8332C31.0133 82.7954 31.3253 82.5072 31.6254 82.4592L30.5452 85.2806C30.4492 85.5447 30.6412 85.6888 30.7732 85.6888C31.3133 85.6888 31.9374 85.1726 32.2135 84.4642H32.0334C31.8534 84.7283 31.5413 85.0165 31.2413 85.0645L32.4055 82.2431ZM32.9585 80.6826C32.9585 80.9228 32.7544 81.1269 32.5144 81.1269C32.2744 81.1269 32.0703 80.9228 32.0703 80.6826C32.0703 80.4425 32.2624 80.2384 32.5144 80.2384C32.7544 80.2384 32.9585 80.4425 32.9585 80.6826ZM26.8987 82.5315C26.3586 82.5315 25.3864 83.7081 25.3864 84.5846C25.3864 84.8487 25.4704 84.9687 25.6145 84.9687C25.8425 84.9687 26.3466 84.4885 26.6706 84.0923L27.2347 82.5796C27.1267 82.5435 27.0187 82.5315 26.8987 82.5315ZM28.3632 81.6791L28.0632 81.6551L27.7271 81.9913H27.6671C26.2389 81.9913 24.7146 83.7682 24.7146 85.1609C24.7146 85.485 24.8946 85.7011 25.2427 85.7011C25.6426 85.7011 26.0316 85.1571 26.4616 84.5558L26.5269 84.4645L26.5029 84.6926C26.4429 85.3409 26.6469 85.7011 26.983 85.7011C27.3791 85.7011 27.7391 85.0888 28.0152 84.4765H27.8351C27.6431 84.7527 27.4631 84.9207 27.3191 84.9207C27.175 84.9207 27.067 84.6566 27.3191 84.0803L28.3632 81.6791ZM22.3135 85.5692C21.7974 85.7733 21.4373 86.0134 21.4373 86.3856C21.4373 86.7337 21.7614 86.8778 22.4335 86.8778C23.3337 86.8778 23.8258 86.6137 23.8258 86.2655C23.8258 86.1094 23.6217 86.0374 23.0816 85.8573C22.7336 85.7493 22.4815 85.6532 22.3135 85.5692ZM22.9128 84.0924C22.6728 84.0924 22.5888 83.8883 22.5888 83.6722C22.5888 82.9758 22.9248 82.1114 23.4649 82.1114C23.705 82.1114 23.789 82.3155 23.789 82.5316C23.777 83.24 23.4409 84.0924 22.9128 84.0924ZM23.3701 85.2209C24.0302 85.425 24.4383 85.581 24.4383 86.0373C24.4383 86.6255 23.3581 87.3219 22.0499 87.3099C21.2937 87.3099 20.6456 87.1058 20.6456 86.6135C20.6456 86.1453 21.0777 85.7611 22.1339 85.449C21.9899 85.3529 21.9299 85.2329 21.9299 85.0648C21.9299 84.7766 22.1939 84.5485 22.65 84.3324C22.2059 84.2724 21.9178 83.9362 21.9178 83.444C21.9178 82.6876 22.542 81.8232 23.5261 81.8232C23.7302 81.8232 23.9102 81.8712 24.0542 81.9673H25.1344L25.0144 82.3755H24.3783C24.4143 82.4835 24.4383 82.6036 24.4383 82.7356C24.4383 83.468 23.8502 84.3084 22.914 84.3564C22.674 84.4885 22.554 84.6686 22.554 84.8127C22.554 84.9822 22.7503 85.0395 23.1842 85.1662C23.2419 85.183 23.3039 85.2011 23.3701 85.2209ZM19.5646 83.1679C20.0327 83.1679 20.0447 83.372 19.9727 83.8883H20.2367L20.8609 82.1834H20.5968C20.3688 82.5916 20.1767 82.9038 19.6726 82.9038H18.6405L19.1446 81.4991C19.3246 80.9949 19.4086 80.8988 20.0567 80.8988H20.5128C21.1729 80.8988 21.2449 81.0789 21.2449 81.7752H21.509L21.725 80.6107H17.8123L17.7403 80.8268C18.4964 80.9829 18.5684 81.0549 18.2204 82.0274L17.4403 84.1284C17.0802 85.1009 16.9362 85.1729 16.06 85.329L16 85.5571H20.3448L21.1249 84.3205H20.8248C20.3208 84.8127 19.8167 85.269 18.8325 85.269C17.75 85.269 17.7693 85.216 18.0941 84.3234C18.115 84.266 18.1372 84.205 18.1604 84.1404L18.5204 83.1799H19.5646V83.1679Z" fill="black"/>
<path fill-rule="evenodd" clip-rule="evenodd" d="M23.1496 72.8876C23.3896 72.8876 23.5936 72.6837 23.5936 72.4438C23.5936 72.2039 23.3896 72 23.1496 72C22.8977 72 22.7057 72.2039 22.7057 72.4438C22.7057 72.6957 22.8977 72.8876 23.1496 72.8876ZM26.7022 74.3986C26.7022 73.8229 26.5583 73.607 26.1503 73.607C25.6464 73.607 25.1785 74.1467 24.7106 74.7944L25.7184 72.0956L25.6584 72.0117L24.4227 72.1556V72.2996L24.6626 72.4795C24.8716 72.6419 24.811 72.8044 24.633 73.2818L24.6146 73.3311L23.5229 76.1858C23.4269 76.4257 23.3189 76.7136 23.3189 76.7856C23.3189 77.1214 23.7748 77.4453 24.1947 77.4453C25.1305 77.4573 26.7022 75.73 26.7022 74.3986ZM37.1042 73.1752L38.22 72.1556V72.0117H37.4761L36.8163 73.1752H37.1042ZM37.1765 76.0899H37.4164C36.9605 76.9415 36.4086 77.4573 35.8807 77.4453C35.4248 77.4453 35.1369 77.1214 35.1369 76.5097C35.1369 75.2143 36.1927 73.595 37.1165 73.595C37.6444 73.595 38.1123 73.9908 37.7284 74.9024L35.7727 75.5501C35.7368 75.7181 35.7128 75.91 35.7128 76.0899C35.7128 76.5337 35.8807 76.7376 36.2167 76.7376C36.5406 76.7376 36.8765 76.4497 37.1765 76.0899ZM37.1153 74.7945C37.2353 74.3387 37.0073 74.1348 36.7434 74.1348C36.4555 74.1348 36.0955 74.5546 35.9036 75.1184L37.1153 74.7945ZM33.5747 74.1595H32.9268V73.8596L33.7306 73.7516L34.4025 72.7321H34.7744L34.4145 73.7516H35.3623L35.2423 74.1595H34.2705L33.3227 76.8103C33.7546 76.7383 34.3305 76.3305 34.5945 75.9587H34.7744C34.4385 76.8463 33.5627 77.47 32.8308 77.47C32.5789 77.47 32.4469 77.2301 32.5429 76.9902L33.5747 74.1595ZM32.5931 74.4713C32.7251 74.0155 32.6531 73.6077 32.3052 73.6077C31.8713 73.6077 31.7354 73.8942 31.3149 74.7809L31.2854 74.8431V74.3154C31.2854 73.9435 31.1654 73.6077 30.8295 73.6077C30.4336 73.6077 30.0736 74.2194 29.7977 74.8311H29.9776C30.1696 74.5553 30.3496 74.3873 30.4815 74.3873C30.6495 74.3873 30.7455 74.6512 30.4815 75.227L29.7137 76.9302C29.5697 77.2541 29.7257 77.458 30.0376 77.458C30.2296 77.458 30.3136 77.41 30.3976 77.2061L31.1534 75.215C31.3694 74.9511 31.5613 74.7232 31.8013 74.4713H32.5931ZM28.7902 74.7945C28.9101 74.3387 28.6822 74.1348 28.4182 74.1348C28.1303 74.1348 27.7823 74.5546 27.5784 75.1184L28.7902 74.7945ZM29.0893 76.0899H28.8494C28.5495 76.4497 28.2135 76.7376 27.8896 76.7376C27.5536 76.7376 27.3857 76.5337 27.3857 76.0899C27.3857 75.91 27.4097 75.7181 27.4457 75.5501L29.4013 74.9024C29.7852 73.9908 29.3293 73.595 28.7894 73.595C27.8656 73.595 26.8098 75.2143 26.8098 76.5097C26.8098 77.1214 27.0977 77.4453 27.5536 77.4453C28.0815 77.4573 28.6334 76.9415 29.0893 76.0899ZM24.0512 76.5461C24.0512 76.702 24.3272 76.882 24.5191 76.882C25.299 76.882 26.0308 75.4786 26.0188 74.6989C26.0188 74.435 25.8869 74.3271 25.7069 74.3271C25.419 74.3271 24.8911 74.7589 24.5551 75.1667L24.2432 76.0064C24.1352 76.2822 24.0512 76.4981 24.0512 76.5461ZM22.7917 73.6077C22.9357 73.6077 23.1036 73.7516 23.0316 74.0155L21.8799 76.8343C22.1798 76.7863 22.4917 76.4984 22.6717 76.2345H22.8517C22.5757 76.9422 21.9518 77.458 21.4119 77.458C21.268 77.458 21.076 77.314 21.172 77.0502L22.2518 74.2314C21.9518 74.2794 21.6399 74.5673 21.4599 74.8311H21.28C21.5559 74.1235 22.2278 73.6077 22.7917 73.6077ZM17.8116 72.3602H20.3911L20.3192 72.5881C19.4433 72.744 19.2994 72.816 18.9394 73.7876L18.1716 75.8986C17.7997 76.9062 17.8956 77.0261 18.5555 77.0261C19.3708 77.0261 19.9053 76.4337 20.3721 75.9164C20.4068 75.878 20.4411 75.84 20.4751 75.8027H20.7751L19.9232 77.314H16L16.072 77.0981C16.9358 76.9422 17.0798 76.8702 17.4397 75.8986L18.2196 73.7756C18.5675 72.804 18.4955 72.732 17.7397 72.5761L17.8116 72.3602Z" fill="black"/>
</svg>
