<svg width="119" height="118" viewBox="0 0 119 118" fill="none" xmlns="http://www.w3.org/2000/svg">
<path d="M97.5 14C89.1457 14 81.1335 17.3187 75.2261 23.2261C69.3187 29.1335 66 37.1457 66 45.5C66 53.8543 69.3187 61.8665 75.2261 67.7739C81.1335 73.6813 89.1457 77 97.5 77" stroke="#FFC961" stroke-width="2"/>
<path d="M99 26C93.6957 26 88.6086 28.1071 84.8579 31.8579C81.1071 35.6086 79 40.6957 79 46C79 51.3043 81.1071 56.3914 84.8579 60.1421C88.6086 63.8929 93.6957 66 99 66" stroke="#FFC961" stroke-width="2"/>
<path d="M97 77H117" stroke="#FFC961" stroke-width="2"/>
<path d="M99 26H119" stroke="#FFC961" stroke-width="2"/>
<path d="M19 97.5C19 89.1457 22.3187 81.1335 28.2261 75.2261C34.1335 69.3187 42.1457 66 50.5 66C58.8543 66 66.8665 69.3187 72.7739 75.2261C78.6813 81.1335 82 89.1457 82 97.5" stroke="#FFC961" stroke-width="2"/>
<path d="M31 99C31 93.6957 33.1071 88.6086 36.8579 84.8579C40.6086 81.1071 45.6957 79 51 79C56.3043 79 61.3914 81.1071 65.1421 84.8579C68.8929 88.6086 71 93.6957 71 99" stroke="#FFC961" stroke-width="2"/>
<path d="M82 97V117" stroke="#FFC961" stroke-width="2"/>
<path d="M31 98L31 118" stroke="#FFC961" stroke-width="2"/>
<path fill-rule="evenodd" clip-rule="evenodd" d="M44.0375 38.1477C42.6606 35.2347 39.9958 31.7279 36.4614 28.4375C33.8417 25.9986 25.1011 21.4473 20.5019 21.5892C20.6888 26.1867 25.8526 34.58 28.4723 37.0189C32.1397 40.4331 35.9723 42.8968 39.0345 44.0084C24.0465 47.06 21.7173 55.2756 22.7749 64.814C28.3516 58.3454 37.9319 55.4562 47.0651 55.0569C50.8232 54.8926 54.4458 55.394 57.8207 56.4569C56.165 52.798 55.1944 48.7463 55.0752 44.4569C54.8314 35.6812 56.7346 26.2244 62.3636 20.2605C53.5029 21.1068 45.8284 23.7276 44.0375 38.1477Z" stroke="#FFC961" stroke-width="2"/>
<circle cx="51" cy="100" r="7" stroke="#FFC961" stroke-width="2"/>
<circle cx="99" cy="46" r="7" stroke="#FFC961" stroke-width="2"/>
</svg>
